<svg width="16" height="19" viewBox="0 0 16 19" fill="none" xmlns="http://www.w3.org/2000/svg">
<path d="M14.3115 4.4088C14.3115 2.72371 12.9467 1.35857 11.2621 1.35843H4.40675C2.72236 1.35843 1.35852 2.72335 1.35843 4.4088V17.47L6.69531 14.7102L6.83097 14.645C7.51688 14.3409 8.30628 14.3603 8.97977 14.7031L14.3115 17.4169V4.4088ZM15.669 17.8483C15.669 18.6136 14.9117 19.1257 14.2177 18.8815L14.08 18.8223L8.36372 15.9127C8.07643 15.7665 7.74308 15.7493 7.44493 15.8607L7.3194 15.9157L1.59606 18.8763C0.868532 19.2526 0.000334183 18.7244 0 17.9054V4.4088C8.35458e-05 1.97463 1.9715 0 4.40675 0H11.2621C13.6971 0.000135762 15.6689 1.97444 15.669 4.4088V17.8483Z" fill="#A4A8B2"/>
</svg>
