<svg width="18" height="18" viewBox="0 0 18 18" fill="none" xmlns="http://www.w3.org/2000/svg">
<path d="M1.40064 9.0005C1.40064 4.80381 4.80279 1.40184 8.99944 1.4017C13.1963 1.4017 16.5983 4.80372 16.5983 9.0005C16.5983 10.0124 16.4016 10.9766 16.0438 11.8576L15.9501 12.0923C15.9212 12.1698 15.8959 12.2466 15.8795 12.3196L15.8501 12.4953C15.8437 12.5529 15.8407 12.611 15.8407 12.6742L15.8574 12.8973L15.8912 13.1151L16.4384 16.3963C16.4413 16.4139 16.4441 16.4306 16.4467 16.4468C16.4305 16.4441 16.413 16.4424 16.3952 16.4394L13.1151 15.8922L12.8973 15.8575C12.8231 15.8476 12.7475 15.8406 12.6731 15.8406L12.4953 15.8501C12.4377 15.8565 12.3803 15.8667 12.3185 15.8806L12.0912 15.9512C12.0136 15.98 11.9349 16.0123 11.8576 16.0437L11.5229 16.17C10.7342 16.4476 9.88508 16.5994 8.99944 16.5994C4.80287 16.5992 1.40078 13.1971 1.40064 9.0005ZM0 9.0005C0.000140545 13.9708 4.02921 17.9998 8.99944 18C10.046 18 11.0522 17.821 11.988 17.4917L12.3848 17.3423C12.4802 17.3035 12.5391 17.2791 12.5836 17.2624L12.6247 17.2476C12.6413 17.2439 12.6489 17.2424 12.6489 17.2424H12.6731C12.6766 17.2426 12.6872 17.2426 12.7089 17.2455L12.8846 17.2739L16.1647 17.8211C16.3235 17.8475 16.4896 17.8757 16.6298 17.8864C16.7376 17.8945 16.8812 17.897 17.0371 17.859L17.196 17.8064C17.4356 17.7037 17.6327 17.5238 17.7569 17.2971L17.8053 17.1971C17.8977 16.9818 17.8962 16.7735 17.8853 16.6299C17.8747 16.4897 17.8465 16.3244 17.8201 16.1658L17.2739 12.8847L17.2455 12.7089L17.2413 12.6742C17.2413 12.6578 17.2423 12.65 17.2423 12.65L17.2465 12.6258C17.2444 12.635 17.2449 12.6284 17.2613 12.5847L17.3412 12.3848C17.7659 11.3392 18 10.1962 18 9.0005C18 4.03005 13.9699 0 8.99944 0C4.02912 0.000140545 0 4.03014 0 9.0005Z" fill="#A4A8B2"/>
</svg>
