<svg width="19" height="15" viewBox="0 0 19 15" fill="none" xmlns="http://www.w3.org/2000/svg">
<path fill-rule="evenodd" clip-rule="evenodd" d="M9.49998 0C6.06753 0 2.90648 1.84854 0.731429 4.97022C0.22953 5.68839 0 6.61249 0 7.49999C0 8.38729 0.22944 9.31118 0.731119 10.0293C2.90618 13.1513 6.06737 15 9.49998 15C12.9325 15 16.0935 13.1515 18.2686 10.0298C18.7705 9.31158 19 8.38749 19 7.49999C19 6.61269 18.7706 5.68879 18.2689 4.97065L18.2683 4.96978L17.7489 5.35459L18.2689 4.97065C16.0938 1.84871 12.9326 0 9.49998 0ZM0.731119 10.0293L1.25109 9.64538L0.731729 10.0302L0.731119 10.0293ZM1.77107 5.73859C3.74308 2.90805 6.53994 1.31757 9.49998 1.31757C12.4601 1.31757 15.2569 2.90805 17.2289 5.73859L17.2295 5.73949C17.5424 6.18689 17.7202 6.82509 17.7202 7.49999C17.7202 8.17489 17.5424 8.81309 17.2295 9.26048L17.2289 9.26138C15.2569 12.0919 12.4601 13.6824 9.49998 13.6824C6.53994 13.6824 3.74308 12.0919 1.77107 9.26138L1.77046 9.26048C1.45763 8.81309 1.27979 8.17489 1.27979 7.49999C1.27979 6.82509 1.45763 6.18689 1.77046 5.73949L1.77107 5.73859ZM7.92489 7.49999C7.92489 6.60259 8.62829 5.87839 9.49998 5.87839C10.3717 5.87839 11.0751 6.60259 11.0751 7.49999C11.0751 8.39739 10.3717 9.12158 9.49998 9.12158C8.62829 9.12158 7.92489 8.39739 7.92489 7.49999ZM9.49998 4.5608C7.92149 4.5608 6.64507 5.87489 6.64507 7.49999C6.64507 9.12508 7.92149 10.4392 9.49998 10.4392C11.0785 10.4392 12.3549 9.12508 12.3549 7.49999C12.3549 5.87489 11.0785 4.5608 9.49998 4.5608Z" fill="#A4A8B2"/>
</svg>
