<svg width="16" height="17" viewBox="0 0 16 17" fill="none" xmlns="http://www.w3.org/2000/svg">
<path d="M13.1567 11.1034C13.4382 11.1036 13.6668 11.332 13.6668 11.6135V13.5215H15.4899L15.5926 13.5324C15.8246 13.5802 15.9999 13.7854 16 14.0316C16 14.2778 15.8247 14.4838 15.5926 14.5317L15.4899 14.5417H13.6668V16.4634C13.6665 16.7449 13.438 16.9733 13.1567 16.9735C12.8753 16.9733 12.6468 16.7449 12.6466 16.4634V14.5417H10.8134C10.5317 14.5417 10.3034 14.3132 10.3033 14.0316C10.3034 13.7499 10.5317 13.5215 10.8134 13.5215H12.6466V11.6135C12.6466 11.332 12.8751 11.1036 13.1567 11.1034ZM6.59617 0.0826209C8.16293 -0.151758 9.76228 0.115369 11.1761 0.847764C12.5899 1.58025 13.7503 2.74249 14.4986 4.17634C15.2469 5.61016 15.547 7.2465 15.3584 8.86187L15.3356 8.96348C15.2612 9.18843 15.0372 9.33768 14.7925 9.30912C14.5128 9.27647 14.3125 9.02306 14.3453 8.74332L14.3711 8.47828C14.4758 7.15203 14.2062 5.82167 13.594 4.64857C12.9411 3.39748 11.9314 2.3878 10.7068 1.75339C9.48264 1.11921 8.09988 0.889326 6.7466 1.09185C5.39317 1.29444 4.12905 1.92097 3.12811 2.89113C2.12699 3.86158 1.43767 5.12902 1.15847 6.52257C0.879319 7.91646 1.02537 9.36503 1.57492 10.6691C2.12439 11.9728 3.04913 13.0664 4.21904 13.8044C5.38852 14.542 6.74782 14.8903 8.11253 14.8047L8.21608 14.8087C8.45103 14.8415 8.63895 15.036 8.65445 15.2818C8.672 15.5628 8.45817 15.805 8.17731 15.8228L7.88033 15.8358C6.40055 15.8702 4.94015 15.465 3.67508 14.6672C2.32563 13.816 1.26368 12.5586 0.634433 11.0656C0.0052405 9.57253 -0.160948 7.91595 0.158208 6.32232C0.477395 4.72902 1.26626 3.27519 2.41777 2.15887C3.56964 1.04241 5.02923 0.317132 6.59617 0.0826209ZM10.3013 9.68373C10.4976 9.48184 10.8206 9.47755 11.0226 9.67384C11.2246 9.87012 11.2289 10.1931 11.0326 10.3951C9.26963 12.2091 6.38091 12.2786 4.54483 10.5755L4.37048 10.4051L4.30572 10.3244C4.1779 10.1246 4.2038 9.85553 4.38044 9.68373C4.5573 9.51193 4.82695 9.49428 5.02305 9.62793L5.10174 9.69373L5.23725 9.82625C6.66698 11.1529 8.92317 11.1021 10.3013 9.68373ZM4.9543 5.5512C5.37663 5.55141 5.71934 5.89398 5.71944 6.31634C5.71944 6.73879 5.37669 7.08123 4.9543 7.08153C4.53172 7.08153 4.18915 6.73892 4.18915 6.31634C4.18925 5.89385 4.53178 5.5512 4.9543 5.5512ZM10.4797 5.5512C10.9021 5.5512 11.2447 5.89385 11.2448 6.31634C11.2448 6.73892 10.9022 7.08153 10.4797 7.08153C10.0571 7.08143 9.71453 6.73888 9.71453 6.31634C9.71464 5.89389 10.0572 5.55126 10.4797 5.5512Z" fill="#858B98"/>
</svg>
