<svg width="70" height="10" viewBox="0 0 70 10" fill="none" xmlns="http://www.w3.org/2000/svg">
<path d="M65.796 9.128C64.8786 9.128 64.052 8.94133 63.316 8.568C62.5906 8.184 62.02 7.656 61.604 6.984C61.1986 6.312 60.996 5.54933 60.996 4.696C60.996 3.84267 61.1986 3.08 61.604 2.408C62.02 1.736 62.5906 1.21333 63.316 0.839999C64.052 0.456 64.8786 0.264 65.796 0.264C66.7026 0.264 67.492 0.456 68.164 0.839999C68.8466 1.21333 69.3426 1.752 69.652 2.456L67.716 3.496C67.268 2.70667 66.6226 2.312 65.78 2.312C65.1293 2.312 64.5906 2.52533 64.164 2.952C63.7373 3.37867 63.524 3.96 63.524 4.696C63.524 5.432 63.7373 6.01333 64.164 6.44C64.5906 6.86667 65.1293 7.08 65.78 7.08C66.6333 7.08 67.2786 6.68533 67.716 5.896L69.652 6.952C69.3426 7.63467 68.8466 8.168 68.164 8.552C67.492 8.936 66.7026 9.128 65.796 9.128Z" fill="black"/>
<path d="M50.5906 0.391999H53.0706V3.752H56.8146V0.391999H59.3106V9H56.8146V5.784H53.0706V9H50.5906V0.391999Z" fill="black"/>
<path d="M44.2784 0.264C45.6117 0.264 46.6357 0.584 47.3504 1.224C48.0651 1.85333 48.4224 2.808 48.4224 4.088V9H46.0864V7.928C45.6171 8.728 44.7424 9.128 43.4624 9.128C42.8011 9.128 42.2251 9.016 41.7344 8.792C41.2544 8.568 40.8864 8.25867 40.6304 7.864C40.3744 7.46933 40.2464 7.02133 40.2464 6.52C40.2464 5.72 40.5451 5.09067 41.1424 4.632C41.7504 4.17333 42.6837 3.944 43.9424 3.944H45.9264C45.9264 3.4 45.7611 2.984 45.4304 2.696C45.0997 2.39733 44.6037 2.248 43.9424 2.248C43.4837 2.248 43.0304 2.32267 42.5824 2.472C42.1451 2.61067 41.7717 2.80267 41.4624 3.048L40.5664 1.304C41.0357 0.973333 41.5957 0.717333 42.2464 0.535999C42.9077 0.354666 43.5851 0.264 44.2784 0.264ZM44.0864 7.448C44.5131 7.448 44.8917 7.352 45.2224 7.16C45.5531 6.95733 45.7877 6.664 45.9264 6.28V5.4H44.2144C43.1904 5.4 42.6784 5.736 42.6784 6.408C42.6784 6.728 42.8011 6.984 43.0464 7.176C43.3024 7.35733 43.6491 7.448 44.0864 7.448Z" fill="black"/>
<path d="M34.7659 0.264C35.6406 0.264 36.4246 0.456 37.1179 0.839999C37.8112 1.21333 38.3552 1.736 38.7499 2.408C39.1446 3.08 39.3419 3.84267 39.3419 4.696C39.3419 5.54933 39.1446 6.312 38.7499 6.984C38.3552 7.656 37.8112 8.184 37.1179 8.568C36.4246 8.94133 35.6406 9.128 34.7659 9.128C34.0086 9.128 33.3152 8.98933 32.6859 8.712C32.0566 8.424 31.5339 8.024 31.1179 7.512C30.7019 6.98933 30.4246 6.392 30.2859 5.72H29.1019V9H26.6219V0.391999H29.1019V3.56H30.3019C30.5472 2.55733 31.0699 1.75733 31.8699 1.16C32.6699 0.562667 33.6352 0.264 34.7659 0.264ZM34.7659 7.08C35.3739 7.08 35.8752 6.86667 36.2699 6.44C36.6752 6.00267 36.8779 5.42133 36.8779 4.696C36.8779 3.96 36.6752 3.37867 36.2699 2.952C35.8752 2.52533 35.3739 2.312 34.7659 2.312C34.1472 2.312 33.6352 2.52533 33.2299 2.952C32.8352 3.37867 32.6379 3.96 32.6379 4.696C32.6379 5.42133 32.8352 6.00267 33.2299 6.44C33.6352 6.86667 34.1472 7.08 34.7659 7.08Z" fill="black"/>
<path d="M15.5125 0.391999H17.9925V3.752H21.7365V0.391999H24.2325V9H21.7365V5.784H17.9925V9H15.5125V0.391999Z" fill="black"/>
<path d="M12.221 9.128C11.7837 9.128 11.4157 8.97867 11.117 8.68C10.8183 8.38133 10.669 8.008 10.669 7.56C10.669 7.10133 10.8183 6.73333 11.117 6.456C11.4157 6.168 11.7837 6.024 12.221 6.024C12.6583 6.024 13.0263 6.168 13.325 6.456C13.6237 6.73333 13.773 7.10133 13.773 7.56C13.773 8.008 13.6237 8.38133 13.325 8.68C13.0263 8.97867 12.6583 9.128 12.221 9.128Z" fill="black"/>
<path d="M9.69602 4.056C9.69602 4.45067 9.64802 4.888 9.55202 5.368H2.96002C3.04535 6.54133 3.78668 7.128 5.18402 7.128C5.62135 7.128 6.03735 7.05867 6.43202 6.92C6.83735 6.78133 7.18935 6.584 7.48802 6.328L8.52802 7.976C8.04802 8.36 7.49868 8.648 6.88002 8.84C6.26135 9.032 5.61068 9.128 4.92802 9.128C4.04268 9.128 3.26402 8.97333 2.59202 8.664C1.93068 8.344 1.41868 7.89067 1.05602 7.304C0.704015 6.71733 0.528015 6.04 0.528015 5.272C0.528015 4.32267 0.741349 3.46933 1.16802 2.712C1.60535 1.944 2.20802 1.34667 2.97602 0.92C3.74402 0.482667 4.61868 0.264 5.60002 0.264C6.43202 0.264 7.15202 0.418667 7.76002 0.728C8.37868 1.03733 8.85335 1.48 9.18402 2.056C9.52535 2.632 9.69602 3.29867 9.69602 4.056ZM5.48802 2.136C4.90135 2.136 4.40535 2.296 4.00002 2.616C3.59468 2.92533 3.30668 3.35733 3.13602 3.912H7.40802C7.40802 3.35733 7.23202 2.92533 6.88002 2.616C6.53868 2.296 6.07468 2.136 5.48802 2.136Z" fill="black"/>
</svg>
